HIERARCHY
ROOT Hips
{
  OFFSET 0 0 0
  CHANNELS 6 Xposition Yposition Zposition Zrotation Yrotation Xrotation
  JOINT LeftThigh
  {
    OFFSET 8.409438 0 -5.917753
    CHANNELS 3 Zrotation Yrotation Xrotation
    JOINT LeftLeg
    {
      OFFSET 0 0 -42.358652
      CHANNELS 3 Zrotation Yrotation Xrotation
      JOINT LeftFoot
      {
        OFFSET 0 0 -39.357303
        CHANNELS 3 Zrotation Yrotation Xrotation
      }
    }
  }
  JOINT RightThigh
  {
    OFFSET -8.409438 0 -5.917753
    CHANNELS 3 Zrotation Yrotation Xrotation
    JOINT RightLeg
    {
      OFFSET 0 0 -42.358652
      CHANNELS 3 Zrotation Yrotation Xrotation
      JOINT RightFoot
      {
        OFFSET 0 0 -39.357303
        CHANNELS 3 Zrotation Yrotation Xrotation
      }
    }
  }
  JOINT SpineLow
  {
    OFFSET 0 0 4.719101
    CHANNELS 3 Zrotation Yrotation Xrotation
    JOINT SpineMid
    {
      OFFSET 0 0 12.899191
      CHANNELS 3 Zrotation Yrotation Xrotation
      JOINT Chest
      {
        OFFSET 0 0 12.899191
        CHANNELS 3 Zrotation Yrotation Xrotation
        JOINT LeftShoulder
        {
          OFFSET 7.550562 1.41573 9.438202
          CHANNELS 3 Zrotation Yrotation Xrotation
          JOINT LeftArm
          {
            OFFSET 9.155056 0 4.247191
            CHANNELS 3 Zrotation Yrotation Xrotation
            JOINT LeftForearm
            {
              OFFSET 0 0 25.771955
              CHANNELS 3 Zrotation Yrotation Xrotation
              JOINT LeftHand
              {
                OFFSET 0 0 25.197169
                CHANNELS 3 Zrotation Yrotation Xrotation
              }
            }
          }
        }
        JOINT RightShoulder
        {
          OFFSET -7.550562 1.41573 9.438202
          CHANNELS 3 Zrotation Yrotation Xrotation
          JOINT RightArm
          {
            OFFSET -9.155056 0 4.247191
            CHANNELS 3 Zrotation Yrotation Xrotation
            JOINT RightForearm
            {
              OFFSET 0 0 -25.771955
              CHANNELS 3 Zrotation Yrotation Xrotation
              JOINT RightHand
              {
                OFFSET 0 0 -25.197169
                CHANNELS 3 Zrotation Yrotation Xrotation
              }
            }
          }
        }
        JOINT Neck
        {
          OFFSET 0 0 15.101124
          CHANNELS 3 Zrotation Yrotation Xrotation
          JOINT Head
          {
            OFFSET 0 0 11.325843
            CHANNELS 3 Zrotation Yrotation Xrotation
            End Site
            {
              OFFSET 0 0 14.157303
            }
          }
        }
      }
    }
  }
}
MOTION
Frames: 7
Frame Time: 0.0
0.0  101.685394  0.0  -3.499055  -35.860556  -103.49307  33.637191  -26.415565  5.353699  -8.285471  10.67964  29.098234  12.480491  5.596126  5.022604  -7.495221  1.049579  -6.09928  13.122175  7.929435  18.552563  14.086392  3.011455  -1.790372  -4.242595  -1.047463  4.659975  -11.752184  -2.026901  12.879858  -11.752184  -2.026901  12.879858  -16.57479  9.769414  -5.82402  58.510012  50.424989  92.091052  -15.709898  -33.566863  120.802209  125.015754  15.822289  -10.158397  11.225522  5.665611  14.103914  90.914774  9.243098  43.392924  -55.610162  2.40594  -99.060668  58.188594  34.397128  17.182652  27.473619  6.807496  -5.884717  20.648711  4.853301  -4.727309  
0.0  101.685394  0.0  -2.552525  -37.384674  -103.797746  32.931447  -25.032874  6.136422  -7.224746  10.266585  28.681984  13.139086  5.580906  5.333686  -5.809386  1.553703  -6.105919  13.044357  7.960378  17.763479  14.157273  2.876841  -1.832995  -4.082608  -0.915693  4.608028  -11.289384  -1.709769  12.711406  -11.289385  -1.709769  12.711406  -16.981903  10.148994  -5.961709  57.512954  52.879672  91.547203  -15.879566  -32.819197  121.057968  125.038046  15.339994  -10.32387  11.013297  5.029144  13.958824  90.943078  9.302841  42.175157  -57.682677  5.252715  -98.361057  57.790808  34.431392  16.638161  27.15297  7.093625  -5.439478  20.403686  5.091032  -4.40163  
0.0  101.685394  0.0  -1.657035  -38.357435  -103.938526  31.876839  -23.520092  6.646975  -5.701057  9.687024  28.786701  13.3819  5.586586  5.447358  -4.118635  2.11956  -6.318948  12.722968  7.949561  17.103948  13.992824  2.73493  -1.821783  -4.003097  -0.802228  4.534101  -11.049634  -1.429716  12.488958  -11.049634  -1.429716  12.488958  -17.070365  10.381691  -6.128141  57.068021  54.789628  91.63143  -16.178679  -32.372283  121.580323  125.292637  15.001345  -10.846116  11.168863  4.46972  13.707236  90.844107  9.713485  41.25063  -59.117778  7.603538  -98.913609  59.340923  33.223251  17.822999  26.76905  7.147155  -5.166064  20.112794  5.146329  -4.193884  
0.0  101.685394  0.0  -0.937728  -38.980536  -103.982417  30.892039  -22.082879  6.951992  -4.200127  8.994123  29.085639  13.419038  5.624446  5.465207  -2.506398  2.636486  -6.577337  12.186283  7.910953  16.603063  13.530672  2.615851  -1.832475  -3.942817  -0.743964  4.490391  -10.873798  -1.290252  12.359175  -10.873798  -1.290252  12.359175  -17.102462  10.584255  -6.439874  56.88891  56.038951  92.047336  -16.497662  -32.309434  122.132246  125.434389  14.883142  -11.56814  11.163311  3.987155  13.129324  90.849908  10.445661  40.839192  -59.838675  8.852551  -99.383418  61.247509  32.256623  19.502946  26.355068  7.184106  -5.078774  19.801659  5.181019  -4.124743  
0.0  101.685394  0.0  -0.384905  -39.365646  -104.035844  29.930986  -20.841188  7.073442  -3.229982  8.375562  29.232309  13.680895  5.690169  5.565266  -1.029134  3.123313  -6.765587  11.395707  7.839825  16.216148  13.389724  2.476546  -1.781826  -3.873025  -0.730721  4.455142  -10.680866  -1.273102  12.260114  -10.680866  -1.273102  12.260114  -16.883746  10.653453  -6.604568  57.03945  56.848164  93.063766  -16.703652  -32.171752  122.662518  125.663359  14.903245  -12.28603  11.180592  3.842595  12.991675  90.940066  11.700987  40.448613  -60.113855  9.790749  -99.912457  62.864136  31.07634  21.710875  25.828206  7.050505  -5.054806  19.406541  5.085538  -4.094579  
0.0  101.685394  0.0  -0.020276  -39.525962  -104.040759  29.212094  -19.900573  7.12146  -1.091346  7.783271  30.299702  12.621931  5.353688  4.755535  0.173224  3.626979  -6.962584  10.408349  7.738766  15.938539  13.209028  2.360537  -1.765769  -3.814009  -0.744822  4.394456  -10.522113  -1.332043  12.096355  -10.522112  -1.332043  12.096355  -16.512874  10.846892  -6.360431  57.133554  57.304589  93.97318  -16.687783  -31.629374  123.085238  125.99663  14.909194  -12.896534  11.233074  3.730314  13.601083  91.378185  13.490616  40.2626  -60.61979  9.569627  -99.503042  63.60079  30.644441  22.215498  25.326357  6.730203  -4.94295  19.028782  4.853152  -3.991377  
0.0  101.685394  0.0  0.14435  -39.46509  -104.020693  28.764369  -19.352503  7.209964  -0.865187  7.515242  30.105025  12.962426  5.349373  4.826663  1.093652  4.06771  -7.067746  9.36535  7.60912  15.787283  13.389273  2.241598  -1.729336  -3.768737  -0.762754  4.338293  -10.401438  -1.397906  11.945615  -10.401439  -1.397906  11.945615  -16.230653  11.077575  -5.977219  57.376334  57.365235  94.679232  -16.467654  -30.924009  123.358226  126.339828  14.909834  -13.371201  11.575986  3.614052  14.37232  91.817791  15.338927  40.133029  -60.928235  8.468323  -99.525635  64.365985  29.917473  22.127812  24.906902  6.287425  -4.843405  18.712598  4.527483  -3.893959  
